<?xml version="1.0" encoding="utf-8"?>
<!-- Generator: Adobe Illustrator 24.0.3, SVG Export Plug-In . SVG Version: 6.00 Build 0)  -->
<svg version="1.1" id="Layer_1" xmlns="http://www.w3.org/2000/svg" xmlns:xlink="http://www.w3.org/1999/xlink" x="0px" y="0px"
	 viewBox="0 0 1125 2436" style="enable-background:new 0 0 1125 2436;" xml:space="preserve">
<style type="text/css">
	.st0{clip-path:url(#SVGID_2_);}
	.st1{fill:#FFFFFF;}
	.st2{fill-rule:evenodd;clip-rule:evenodd;fill:#697CC8;}
	.st3{fill-rule:evenodd;clip-rule:evenodd;fill:#283568;}
	.st4{fill:#283568;}
	.st5{fill:none;}
</style>
<g>
	<defs>
		<rect id="SVGID_1_" x="0.1" y="0.26" width="1124.88" height="2435.74"/>
	</defs>
	<clipPath id="SVGID_2_">
		<use xlink:href="#SVGID_1_"  style="overflow:visible;"/>
	</clipPath>
	<g class="st0">
		<rect x="0.1" y="0.26" class="st1" width="1124.88" height="2435.74"/>
		<path class="st2" d="M473.3,1189.45c-109.33-118.48-293.27-143.8-384.28-275.14C-23.5,751.93-138.75,550.78-85.46,383.09
			c53.35-167.9,200.05-227.74,386.36-234.33c168.2-5.95,338.55,165.97,508.96,202.67c146.33,31.52,272.82-209.57,374.45-93.19
			c110.97,127.08-57.88,315.89-43.7,471.95c9.09,100.02,147.81,174.61,146.9,273.62c-1,108.54-93.49,176.32-151.82,261.15
			c-104.67,152.24-122.64,454.85-324.65,431.82C611.43,1674.03,616.02,1344.12,473.3,1189.45z"/>
		<path class="st3" d="M494.96,1207.43c-109.33-118.48-293.27-143.8-384.28-275.14C-1.83,769.92-117.08,568.76-63.8,401.07
			c53.35-167.9,200.05-227.74,386.36-234.33c168.19-5.95,338.55,165.97,508.96,202.67c146.33,31.52,272.82-209.57,374.45-93.19
			c110.97,127.08-57.88,315.89-43.7,471.95c9.09,100.02,147.81,174.61,146.9,273.62c-1,108.54-93.49,176.32-151.82,261.15
			c-104.67,152.24-122.64,454.85-324.65,431.82C633.09,1692.01,637.68,1362.1,494.96,1207.43z"/>
		<rect x="-53.9" y="633.19" class="st4" width="1232.87" height="1802.81"/>
		<rect x="405.05" y="456.21" class="st5" width="311.97" height="311.97"/>
	</g>
</g>
</svg>
